<?xml version="1.0" encoding="utf-8"?>
<!-- Generator: Adobe Illustrator 16.0.3, SVG Export Plug-In . SVG Version: 6.00 Build 0)  -->
<!DOCTYPE svg PUBLIC "-//W3C//DTD SVG 1.1//EN" "http://www.w3.org/Graphics/SVG/1.1/DTD/svg11.dtd">
<svg version="1.1" id="Layer_1" xmlns="http://www.w3.org/2000/svg" xmlns:xlink="http://www.w3.org/1999/xlink" x="0px" y="0px"
	 width="487.751px" height="490.001px" viewBox="0 0 487.751 490.001" enable-background="new 0 0 487.751 490.001"
	 xml:space="preserve">
<path fill="#6D6E71" stroke="#000000" stroke-width="2" stroke-miterlimit="10" d="M244.25,469.345
	c122.988,0,222.689-99.702,222.689-222.689H21.561C21.561,369.643,121.262,469.345,244.25,469.345z"/>
<path fill="#E5E5E5" stroke="#000000" stroke-width="2" stroke-miterlimit="10" d="M244.25,20.655
	c122.988,0,222.689,99.702,222.689,222.689H21.561C21.561,120.357,121.262,20.655,244.25,20.655z"/>
<g>
	<path d="M60.091,184.566h2.992l7.744,35.2l4.224,19.008h0.352c0.704-3.168,1.437-6.336,2.2-9.504
		c0.762-3.168,1.554-6.336,2.376-9.504l9.504-35.2h3.168l9.504,35.2l4.752,19.008h0.352c0.704-3.168,1.377-6.336,2.024-9.504
		c0.645-3.168,1.32-6.336,2.024-9.504l7.744-35.2h2.816l-13.376,58.08h-2.816l-11.264-41.712c-0.528-2.288-1.056-4.458-1.584-6.512
		c-0.528-2.053-1.056-4.224-1.584-6.512h-0.352c-0.528,2.288-1.086,4.459-1.672,6.512c-0.587,2.054-1.144,4.224-1.672,6.512
		l-11.088,41.712h-2.816L60.091,184.566z"/>
	<path d="M162.962,242.646l-16.368-27.456h-13.024v27.456h-2.816v-58.08h16.016c2.874,0,5.456,0.279,7.744,0.836
		c2.288,0.559,4.238,1.438,5.852,2.64c1.613,1.203,2.86,2.743,3.74,4.62c0.88,1.878,1.32,4.166,1.32,6.864
		c0,4.635-1.395,8.258-4.18,10.868c-2.787,2.611-6.615,4.151-11.484,4.62l16.544,27.632H162.962z M145.714,212.727
		c5.397,0,9.533-1.07,12.408-3.212c2.874-2.141,4.312-5.47,4.312-9.988c0-4.576-1.438-7.802-4.312-9.68
		c-2.875-1.877-7.011-2.816-12.408-2.816h-12.144v25.696H145.714z"/>
	<path d="M176.381,184.566h2.816v58.08h-2.816V184.566z"/>
	<path d="M206.785,187.03h-18.832v-2.464h40.48v2.464h-18.832v55.616h-2.816V187.03z"/>
	<path d="M237.188,184.566h2.816v58.08h-2.816V184.566z"/>
	<path d="M254.295,184.566h2.992l25.695,42.592l6.688,11.44h0.353c-0.118-2.816-0.206-5.558-0.264-8.228
		c-0.06-2.669-0.089-5.382-0.089-8.14v-37.664h2.641v58.08h-2.992l-25.695-42.592l-6.688-11.44h-0.353
		c0.117,2.758,0.205,5.398,0.265,7.92c0.058,2.523,0.088,5.163,0.088,7.92v38.192h-2.64V184.566z"/>
	<path d="M303.486,213.431c0-4.576,0.6-8.712,1.803-12.408c1.202-3.696,2.904-6.833,5.104-9.416c2.2-2.581,4.869-4.576,8.009-5.984
		c3.137-1.408,6.613-2.112,10.428-2.112c1.936,0,3.695,0.207,5.279,0.616c1.584,0.411,3.006,0.954,4.268,1.628
		c1.262,0.675,2.377,1.423,3.345,2.244c0.968,0.822,1.833,1.614,2.596,2.376l-1.76,1.936c-1.526-1.701-3.374-3.153-5.544-4.356
		c-2.172-1.202-4.899-1.804-8.184-1.804c-3.463,0-6.572,0.631-9.328,1.892c-2.759,1.262-5.104,3.08-7.041,5.456
		c-1.936,2.376-3.418,5.251-4.443,8.624c-1.027,3.374-1.54,7.143-1.54,11.308c0,4.166,0.498,7.95,1.496,11.352
		c0.997,3.403,2.42,6.307,4.269,8.712c1.848,2.406,4.105,4.268,6.775,5.588c2.669,1.32,5.705,1.98,9.107,1.98
		c2.816,0,5.457-0.41,7.92-1.232c2.465-0.821,4.459-1.994,5.984-3.52v-19.184h-14.432v-2.464h17.248v22.528
		c-1.76,1.936-4.062,3.506-6.908,4.708s-6.175,1.804-9.988,1.804c-3.695,0-7.055-0.719-10.076-2.156s-5.588-3.476-7.699-6.116
		c-2.112-2.64-3.756-5.822-4.928-9.548C304.071,222.158,303.486,218.006,303.486,213.431z"/>
	<path d="M377.58,184.566h2.816v58.08h-2.816V184.566z"/>
	<path d="M391.801,232.966c2.112,2.464,4.664,4.431,7.656,5.896c2.992,1.467,6.248,2.2,9.768,2.2c2.346,0,4.459-0.308,6.336-0.924
		c1.877-0.616,3.477-1.466,4.797-2.552c1.32-1.085,2.346-2.39,3.08-3.916c0.732-1.525,1.1-3.226,1.1-5.104
		c0-1.936-0.295-3.564-0.88-4.884c-0.587-1.32-1.364-2.464-2.332-3.432s-2.099-1.804-3.388-2.508
		c-1.291-0.704-2.67-1.378-4.137-2.024l-8.976-4.048c-1.231-0.528-2.538-1.173-3.916-1.936c-1.38-0.762-2.655-1.686-3.828-2.772
		c-1.175-1.085-2.142-2.405-2.903-3.96c-0.764-1.554-1.145-3.417-1.145-5.588c0-2.053,0.41-3.93,1.232-5.632
		c0.82-1.701,1.965-3.168,3.432-4.4c1.466-1.232,3.197-2.185,5.191-2.86c1.994-0.674,4.166-1.012,6.512-1.012
		c3.521,0,6.614,0.69,9.285,2.068c2.668,1.379,4.854,2.978,6.556,4.796l-1.761,1.936c-1.701-1.877-3.726-3.373-6.071-4.488
		c-2.347-1.114-5.017-1.672-8.009-1.672c-4.047,0-7.318,1.012-9.811,3.036c-2.495,2.024-3.74,4.708-3.74,8.052
		c0,1.819,0.336,3.359,1.012,4.62c0.674,1.262,1.525,2.347,2.552,3.256c1.026,0.911,2.126,1.672,3.3,2.288
		c1.174,0.616,2.288,1.159,3.344,1.628l8.977,4.048c1.584,0.704,3.124,1.482,4.62,2.332c1.495,0.851,2.815,1.863,3.96,3.036
		c1.145,1.174,2.053,2.567,2.729,4.18c0.673,1.614,1.012,3.535,1.012,5.764c0,2.23-0.44,4.268-1.32,6.116
		c-0.88,1.848-2.112,3.462-3.696,4.84c-1.584,1.379-3.491,2.45-5.72,3.212c-2.23,0.762-4.694,1.144-7.393,1.144
		c-4.342,0-8.096-0.822-11.264-2.464c-3.168-1.642-5.867-3.753-8.096-6.336L391.801,232.966z"/>
</g>
<g>
	<path d="M57.572,246.996h27.692v38.963h31.234v-38.963h27.692v104.65h-27.692v-41.538H85.264v41.538H57.572V246.996z"/>
	<path d="M216.349,329.429h-29.302l-5.152,22.218h-28.336l31.878-104.65h33.488l31.878,104.65h-29.302L216.349,329.429z
		 M211.358,308.016l-1.771-7.245c-1.288-5.044-2.576-10.519-3.864-16.422c-1.288-5.901-2.576-11.483-3.864-16.744h-0.644
		c-1.182,5.368-2.39,10.976-3.623,16.825c-1.235,5.851-2.495,11.297-3.783,16.341l-1.771,7.245H211.358z"/>
	<path d="M316.604,351.646l-18.031-35.098h-10.627v35.098h-27.691v-104.65h39.605c5.58,0,10.92,0.539,16.02,1.61
		c5.097,1.074,9.553,2.897,13.363,5.474c3.809,2.576,6.842,6.038,9.096,10.385c2.255,4.348,3.382,9.796,3.382,16.342
		c0,7.514-1.53,13.74-4.589,18.676c-3.059,4.938-7.164,8.803-12.316,11.592l22.701,40.572H316.604z M287.945,294.652h9.982
		c11.162,0,16.744-4.613,16.744-13.846c0-4.508-1.424-7.62-4.267-9.338c-2.845-1.716-7.003-2.576-12.478-2.576h-9.982V294.652z"/>
	<path d="M358.752,246.996h30.912c7.941,0,15.214,0.967,21.814,2.898c6.602,1.932,12.262,4.99,16.986,9.177
		c4.722,4.187,8.396,9.555,11.028,16.101c2.629,6.548,3.944,14.438,3.944,23.666c0,9.232-1.287,17.175-3.863,23.828
		c-2.576,6.656-6.199,12.131-10.868,16.422c-4.669,4.295-10.198,7.462-16.583,9.5c-6.387,2.039-13.338,3.059-20.85,3.059h-32.521
		V246.996z M388.054,329.429c3.756,0,7.298-0.456,10.626-1.368c3.326-0.911,6.198-2.496,8.613-4.75s4.319-5.365,5.716-9.338
		c1.394-3.97,2.093-9.016,2.093-15.135c0-6.117-0.699-11.108-2.093-14.973c-1.396-3.863-3.301-6.867-5.716-9.016
		c-2.415-2.146-5.287-3.623-8.613-4.428c-3.328-0.805-6.87-1.207-10.626-1.207h-1.61v60.214H388.054z"/>
</g>
<g>
	<path fill="#E5E5E5" d="M228.624,10.202l-4.54-8.509l3.778-0.223l1.15,2.734c0.194,0.497,0.388,0.98,0.58,1.449
		c0.192,0.47,0.393,0.959,0.602,1.469l0.082-0.005c0.147-0.531,0.292-1.041,0.435-1.53s0.289-0.992,0.437-1.509l0.821-2.85
		l3.696-0.218l-3.508,8.983l0.271,4.599l-3.531,0.208L228.624,10.202z"/>
	<path fill="#E5E5E5" d="M242.773,14.548c-0.933,0.016-1.781-0.128-2.547-0.431s-1.425-0.748-1.976-1.336
		c-0.551-0.587-0.985-1.313-1.3-2.18c-0.316-0.865-0.483-1.846-0.501-2.943c-0.018-1.097,0.117-2.076,0.405-2.938
		s0.697-1.588,1.229-2.18c0.532-0.591,1.176-1.044,1.932-1.358c0.756-0.313,1.6-0.479,2.532-0.494
		c0.918-0.015,1.764,0.122,2.537,0.411c0.772,0.289,1.434,0.724,1.985,1.305s0.984,1.293,1.301,2.138
		c0.314,0.846,0.482,1.816,0.5,2.913s-0.117,2.083-0.404,2.958c-0.287,0.876-0.697,1.616-1.229,2.221
		c-0.531,0.605-1.18,1.072-1.941,1.399C244.532,14.362,243.691,14.534,242.773,14.548z M242.723,11.505
		c0.809-0.013,1.437-0.376,1.885-1.09c0.448-0.713,0.662-1.68,0.642-2.9c-0.02-1.22-0.265-2.159-0.735-2.816
		c-0.47-0.657-1.109-0.979-1.918-0.966s-1.438,0.356-1.886,1.028c-0.449,0.673-0.663,1.619-0.643,2.839
		c0.02,1.22,0.265,2.18,0.736,2.878C241.274,11.176,241.914,11.518,242.723,11.505z"/>
	<path fill="#E5E5E5" d="M251.647,0.978l3.532,0.187l-0.387,7.312c-0.062,1.191,0.054,2.038,0.35,2.541
		c0.296,0.503,0.794,0.773,1.492,0.81c0.698,0.037,1.228-0.179,1.589-0.647s0.573-1.298,0.636-2.489l0.387-7.312l3.409,0.18
		l-0.364,6.901c-0.121,2.287-0.655,3.95-1.603,4.992c-0.948,1.042-2.353,1.513-4.215,1.415c-1.876-0.099-3.24-0.717-4.093-1.854
		c-0.854-1.137-1.22-2.848-1.099-5.135L251.647,0.978z"/>
	<path fill="#E5E5E5" d="M397.163,55.547l2.748,2.356l-1.634,6.456l-0.986,3.109l0.062,0.054c0.201-0.297,0.419-0.625,0.654-0.984
		c0.234-0.358,0.481-0.72,0.74-1.085c0.259-0.365,0.521-0.728,0.784-1.089c0.264-0.36,0.53-0.697,0.798-1.009l2.517-2.936
		l2.561,2.195l-8.701,10.149l-2.748-2.356l1.647-6.471l0.973-3.094l-0.062-0.054c-0.438,0.637-0.909,1.334-1.414,2.093
		c-0.506,0.758-1.026,1.45-1.562,2.074l-2.517,2.936l-2.561-2.195L397.163,55.547z"/>
	<path fill="#E5E5E5" d="M407.952,64.96l6.246,5.966l-2.046,2.142l-3.688-3.523l-1.448,1.517l3.152,3.011l-2.045,2.142l-3.153-3.012
		l-1.647,1.725l3.837,3.665l-2.046,2.142l-6.395-6.108L407.952,64.96z"/>
	<path fill="#E5E5E5" d="M416.512,73.253l5.948,6.263l-2.146,2.04l-3.513-3.698l-1.521,1.444l3.003,3.162l-2.147,2.04l-3.003-3.162
		l-1.729,1.643l3.654,3.848l-2.147,2.04l-6.091-6.413L416.512,73.253z"/>
	<path fill="#E5E5E5" d="M424.694,81.967l2.566,3.002c0.659,0.771,1.169,1.558,1.528,2.359c0.36,0.801,0.533,1.605,0.519,2.411
		c-0.014,0.806-0.23,1.608-0.647,2.407c-0.418,0.799-1.075,1.581-1.971,2.347c-0.896,0.767-1.775,1.3-2.635,1.603
		c-0.86,0.302-1.692,0.405-2.497,0.308s-1.57-0.371-2.299-0.822c-0.728-0.451-1.403-1.042-2.027-1.771l-2.699-3.158L424.694,81.967z
		 M419.122,91.654c0.312,0.365,0.649,0.671,1.015,0.918c0.364,0.248,0.757,0.395,1.176,0.442c0.42,0.047,0.88-0.026,1.382-0.22
		c0.501-0.194,1.049-0.545,1.643-1.053c0.595-0.508,1.021-0.99,1.28-1.446c0.26-0.457,0.394-0.891,0.401-1.304
		c0.008-0.413-0.087-0.814-0.285-1.204c-0.197-0.39-0.452-0.768-0.765-1.132l-0.133-0.156l-5.848,4.998L419.122,91.654z"/>
	<path fill="#E5E5E5" d="M479.678,234.523c1.124-0.022,2.125,0.137,3.002,0.477c0.878,0.339,1.621,0.812,2.229,1.417
		c0.608,0.605,1.078,1.312,1.41,2.122c0.331,0.81,0.505,1.673,0.523,2.592c0.018,0.946-0.141,1.778-0.477,2.498
		c-0.336,0.719-0.738,1.324-1.209,1.813l-2.217-1.891c0.281-0.335,0.497-0.671,0.648-1.01c0.15-0.339,0.222-0.776,0.211-1.311
		c-0.009-0.452-0.106-0.869-0.292-1.249c-0.186-0.38-0.445-0.711-0.78-0.993c-0.334-0.282-0.743-0.497-1.226-0.645
		c-0.483-0.148-1.026-0.216-1.63-0.205c-1.261,0.024-2.222,0.324-2.883,0.899c-0.66,0.575-0.979,1.466-0.956,2.672
		c0.004,0.192,0.028,0.38,0.073,0.564s0.109,0.337,0.194,0.459l1.851-0.036l-0.039-1.974l2.879-0.056l0.1,5.099l-6.375,0.124
		c-0.462-0.484-0.862-1.132-1.199-1.941c-0.338-0.809-0.517-1.687-0.535-2.633c-0.018-0.918,0.106-1.785,0.371-2.599
		c0.266-0.814,0.677-1.528,1.233-2.143c0.558-0.615,1.261-1.104,2.111-1.471C477.546,234.739,478.54,234.545,479.678,234.523z"/>
	<path fill="#E5E5E5" d="M472.84,253.882c0.035-0.932,0.225-1.771,0.568-2.521c0.344-0.748,0.824-1.382,1.44-1.9
		c0.616-0.52,1.365-0.913,2.247-1.182c0.881-0.269,1.869-0.382,2.966-0.341c1.096,0.041,2.066,0.229,2.912,0.562
		c0.845,0.333,1.548,0.781,2.11,1.345c0.562,0.563,0.979,1.23,1.252,2.002c0.272,0.772,0.392,1.624,0.356,2.556
		c-0.034,0.918-0.217,1.755-0.547,2.511c-0.331,0.756-0.801,1.394-1.41,1.913c-0.609,0.519-1.345,0.913-2.205,1.183
		c-0.861,0.269-1.84,0.383-2.936,0.342c-1.097-0.041-2.074-0.229-2.933-0.562c-0.858-0.335-1.576-0.783-2.151-1.348
		c-0.576-0.563-1.007-1.234-1.293-2.014S472.806,254.8,472.84,253.882z M475.882,253.996c-0.03,0.809,0.299,1.455,0.987,1.941
		c0.688,0.485,1.642,0.751,2.861,0.797s2.17-0.148,2.852-0.582c0.682-0.435,1.038-1.056,1.068-1.863
		c0.03-0.809-0.277-1.455-0.925-1.938c-0.647-0.484-1.581-0.749-2.8-0.795c-1.22-0.046-2.191,0.146-2.914,0.58
		C476.289,252.567,475.912,253.188,475.882,253.996z"/>
	<path fill="#E5E5E5" d="M422.692,396.103c-0.604,0.114-1.178,0.304-1.721,0.569c-0.544,0.265-0.977,0.585-1.298,0.959
		c-0.349,0.406-0.538,0.753-0.57,1.043c-0.031,0.289,0.067,0.531,0.297,0.729c0.125,0.106,0.256,0.165,0.393,0.174
		s0.293-0.016,0.469-0.072c0.175-0.058,0.368-0.14,0.578-0.248c0.211-0.108,0.451-0.236,0.723-0.384l1.615-0.809
		c0.336-0.182,0.697-0.323,1.083-0.425c0.387-0.103,0.776-0.147,1.172-0.134c0.395,0.014,0.789,0.096,1.186,0.245
		c0.396,0.149,0.774,0.381,1.139,0.693c0.438,0.375,0.766,0.819,0.984,1.333c0.219,0.513,0.329,1.059,0.329,1.637
		c0.001,0.579-0.114,1.171-0.346,1.777c-0.23,0.605-0.583,1.185-1.056,1.735c-0.5,0.583-1.116,1.079-1.849,1.49
		c-0.731,0.411-1.533,0.649-2.402,0.716l-0.534-2.789c0.534-0.138,1-0.312,1.396-0.521c0.397-0.211,0.757-0.503,1.078-0.878
		c0.286-0.333,0.452-0.642,0.498-0.928c0.046-0.285-0.045-0.526-0.273-0.723c-0.239-0.205-0.538-0.231-0.896-0.077
		c-0.358,0.153-0.826,0.389-1.405,0.705l-1.542,0.817c-0.794,0.421-1.562,0.61-2.305,0.57c-0.742-0.041-1.467-0.365-2.174-0.972
		c-0.427-0.367-0.762-0.808-1.006-1.324c-0.243-0.517-0.368-1.07-0.375-1.663c-0.006-0.593,0.112-1.209,0.355-1.851
		c0.242-0.641,0.637-1.278,1.181-1.913c0.554-0.645,1.24-1.208,2.06-1.688c0.818-0.48,1.715-0.782,2.688-0.905L422.692,396.103z"/>
	<path fill="#E5E5E5" d="M422.562,410.363l-5.94,6.271l-2.149-2.037l3.508-3.703l-1.523-1.442l-2.998,3.165l-2.15-2.036l2.998-3.166
		l-1.731-1.641l-3.649,3.853l-2.15-2.037l6.082-6.42L422.562,410.363z"/>
	<path fill="#E5E5E5" d="M402.147,416.013l2.712-2.581l-1.48-2.51l2.622-2.495l6.268,12.49l-3.099,2.949l-12.167-6.875l2.711-2.58
		L402.147,416.013z M404.496,417.555l0.802,0.514c0.563,0.354,1.164,0.746,1.804,1.18c0.639,0.433,1.25,0.835,1.832,1.209
		l0.06-0.058c-0.363-0.601-0.745-1.226-1.146-1.875c-0.401-0.65-0.764-1.266-1.089-1.846l-0.475-0.826L404.496,417.555z"/>
	<path fill="#E5E5E5" d="M390.518,422.53l4.662,1.915l1.033-0.881l-2.911-3.41l2.691-2.297l8.678,10.169l-3.849,3.284
		c-0.542,0.463-1.105,0.854-1.689,1.172c-0.585,0.318-1.169,0.511-1.753,0.576c-0.583,0.066-1.165-0.019-1.745-0.254
		c-0.579-0.236-1.141-0.672-1.684-1.308c-0.623-0.73-0.99-1.462-1.103-2.195s-0.034-1.449,0.235-2.147l-5.57-2.061L390.518,422.53z
		 M398.028,425.692l-0.97,0.827c-1.085,0.926-1.244,1.837-0.479,2.734c0.373,0.438,0.77,0.622,1.188,0.554
		c0.419-0.069,0.895-0.331,1.426-0.785l0.971-0.827L398.028,425.692z"/>
	<path fill="#E5E5E5" d="M390.828,430.841c0.684,0.893,1.148,1.792,1.396,2.7c0.246,0.908,0.312,1.782,0.195,2.623
		c-0.116,0.84-0.391,1.625-0.825,2.354c-0.434,0.73-0.993,1.358-1.679,1.884c-0.675,0.517-1.394,0.847-2.156,0.99
		c-0.762,0.144-1.479,0.171-2.152,0.082l0.209-2.906c0.436,0.028,0.827,0.009,1.174-0.058c0.346-0.066,0.693-0.233,1.041-0.5
		c0.316-0.242,0.563-0.544,0.744-0.906c0.18-0.363,0.275-0.756,0.288-1.18c0.012-0.424-0.065-0.874-0.232-1.351
		c-0.167-0.478-0.434-0.955-0.801-1.434c-0.767-1.002-1.564-1.608-2.392-1.82c-0.828-0.213-1.585-0.056-2.271,0.47
		c-0.413,0.316-0.709,0.669-0.888,1.056c-0.179,0.388-0.286,0.794-0.322,1.22l-2.836-0.522c0.057-0.873,0.279-1.665,0.666-2.376
		c0.388-0.712,0.908-1.317,1.562-1.818c0.696-0.533,1.44-0.927,2.231-1.179s1.594-0.332,2.408-0.239
		c0.813,0.093,1.618,0.376,2.411,0.848S390.136,429.938,390.828,430.841z"/>
	<path fill="#E5E5E5" d="M384.513,444.146l-2.923,1.992l-2.804-4.113l-3.297,2.247l2.804,4.113l-2.924,1.992l-7.528-11.047
		l2.923-1.992l2.988,4.385l3.297-2.247l-2.988-4.385l2.923-1.992L384.513,444.146z"/>
	<path fill="#E5E5E5" d="M263.903,488.31l-8.702,0.559l-0.189-2.956l5.172-0.331l-0.163-2.546l-4.434,0.285l-0.189-2.956
		l4.434-0.284l-0.313-4.885l3.53-0.227L263.903,488.31z"/>
	<path fill="#E5E5E5" d="M252.659,488.931l-3.536,0.096l-0.362-13.363l3.536-0.096L252.659,488.931z"/>
	<path fill="#E5E5E5" d="M245.762,489.127l-3.619-0.06l-2.864-6.012l-1.226-3.023l-0.083-0.001c0.035,0.356,0.077,0.748,0.125,1.174
		s0.089,0.862,0.123,1.309s0.064,0.893,0.091,1.339c0.027,0.445,0.037,0.874,0.03,1.286l-0.063,3.865l-3.373-0.055l0.218-13.366
		l3.619,0.059l2.864,6.032l1.226,3.003l0.083,0.001c-0.07-0.769-0.152-1.606-0.247-2.513c-0.095-0.907-0.136-1.771-0.122-2.594
		l0.063-3.866l3.373,0.055L245.762,489.127z"/>
	<path fill="#E5E5E5" d="M231.389,488.784l-3.938-0.291c-1.012-0.074-1.929-0.266-2.752-0.574c-0.823-0.308-1.515-0.751-2.078-1.329
		c-0.562-0.577-0.98-1.296-1.253-2.154c-0.273-0.859-0.367-1.877-0.28-3.053s0.326-2.176,0.716-2.999s0.904-1.487,1.539-1.989
		c0.635-0.504,1.37-0.855,2.202-1.055s1.728-0.264,2.685-0.193l4.144,0.306L231.389,488.784z M228.432,478.007
		c-0.479-0.035-0.934-0.01-1.366,0.075c-0.433,0.084-0.813,0.259-1.142,0.523c-0.329,0.265-0.601,0.644-0.816,1.136
		c-0.215,0.493-0.352,1.129-0.409,1.908c-0.058,0.78-0.016,1.422,0.125,1.928c0.142,0.505,0.356,0.906,0.644,1.202
		s0.64,0.512,1.056,0.646c0.417,0.134,0.864,0.218,1.342,0.254l0.205,0.015l0.566-7.671L228.432,478.007z"/>
	<path fill="#E5E5E5" d="M85.491,425.478l2.622,2.375l-1.989,2.195l-7.864-7.126l1.988-2.194l2.622,2.375l6.988-7.712l2.621,2.375
		L85.491,425.478z"/>
	<path fill="#E5E5E5" d="M80.043,409.868l2.653,2.641l2.469-1.548l2.566,2.554l-12.316,6.603l-3.032-3.017l6.543-12.349l2.653,2.641
		L80.043,409.868z M78.565,412.257l-0.492,0.815c-0.338,0.573-0.714,1.185-1.13,1.835c-0.415,0.65-0.802,1.272-1.159,1.864
		l0.058,0.059c0.591-0.38,1.206-0.778,1.844-1.197s1.244-0.798,1.815-1.139l0.813-0.496L78.565,412.257z"/>
	<path fill="#E5E5E5" d="M68.117,412.731l-2.369-2.627l3.696-3.333l-0.055-0.062l-5.955,0.828l-2.589-2.871l6.704-0.673l2.7-8.86
		l2.589,2.871l-1.835,5.643l2.198-0.265l2.474-2.231l2.369,2.627L68.117,412.731z"/>
	<path fill="#E5E5E5" d="M59.062,402.516l-5.439-6.71l2.301-1.865l3.211,3.963l1.63-1.321l-2.746-3.387l2.301-1.865l2.746,3.388
		l1.854-1.503l-3.341-4.122l2.301-1.864l5.568,6.87L59.062,402.516z"/>
	<path fill="#E5E5E5" d="M16.831,272.33l-4.158,2.85l0.171,1.347l4.448-0.564l0.445,3.51l-13.262,1.681l-0.637-5.019
		c-0.089-0.707-0.107-1.393-0.053-2.057c0.054-0.663,0.214-1.257,0.479-1.781c0.265-0.523,0.655-0.964,1.17-1.319
		s1.187-0.586,2.017-0.691c0.952-0.12,1.766-0.026,2.44,0.282c0.675,0.308,1.231,0.766,1.667,1.374l4.777-3.528L16.831,272.33z
		 M10.068,276.878l-0.16-1.266c-0.18-1.414-0.854-2.048-2.024-1.899c-0.571,0.073-0.943,0.303-1.115,0.691
		c-0.172,0.388-0.214,0.929-0.126,1.622l0.16,1.266L10.068,276.878z"/>
	<path fill="#E5E5E5" d="M2.893,267.833l-0.646-8.614l2.953-0.221l0.381,5.086l2.092-0.157l-0.326-4.348l2.953-0.221l0.326,4.348
		l2.379-0.179l-0.397-5.291l2.954-0.222l0.661,8.819L2.893,267.833z"/>
	<path fill="#E5E5E5" d="M4.979,253.367l0.095,3.536l-2.961,0.079L1.83,246.374l2.96-0.079l0.095,3.536l10.403-0.277l0.094,3.536
		L4.979,253.367z"/>
	<path fill="#E5E5E5" d="M1.823,244.068l0.091-3.536l7.319,0.188c1.192,0.031,2.036-0.109,2.531-0.418
		c0.495-0.31,0.751-0.814,0.77-1.513c0.018-0.699-0.212-1.223-0.69-1.571c-0.478-0.348-1.313-0.538-2.506-0.568l-7.319-0.188
		l0.088-3.413l6.908,0.178c2.289,0.059,3.967,0.548,5.034,1.467c1.067,0.919,1.576,2.311,1.528,4.175
		c-0.048,1.878-0.629,3.258-1.742,4.142c-1.113,0.883-2.814,1.295-5.104,1.236L1.823,244.068z"/>
	<path fill="#E5E5E5" d="M16.216,223.544l-4.657,1.929l-0.111,1.353l4.468,0.367l-0.289,3.525l-13.324-1.093l0.414-5.042
		c0.058-0.71,0.183-1.385,0.372-2.023c0.19-0.638,0.469-1.186,0.836-1.644c0.368-0.458,0.84-0.808,1.417-1.05
		c0.577-0.241,1.282-0.328,2.116-0.26c0.957,0.079,1.733,0.338,2.33,0.779c0.597,0.441,1.046,1.004,1.347,1.689l5.403-2.466
		L16.216,223.544z M8.661,226.598l0.104-1.271c0.117-1.421-0.413-2.18-1.588-2.276c-0.574-0.047-0.985,0.102-1.233,0.446
		c-0.248,0.344-0.401,0.865-0.458,1.562l-0.104,1.271L8.661,226.598z"/>
	<path fill="#E5E5E5" d="M3.489,216.224l0.499-3.585l6.315-2.111l3.15-0.849l0.011-0.082c-0.358-0.008-0.752-0.015-1.181-0.019
		c-0.429-0.004-0.866-0.017-1.313-0.037c-0.447-0.021-0.894-0.045-1.34-0.072c-0.446-0.027-0.873-0.07-1.28-0.126l-3.83-0.533
		l0.465-3.341l13.241,1.842l-0.499,3.585l-6.336,2.109l-3.129,0.852l-0.011,0.082c0.772,0.024,1.613,0.044,2.525,0.061
		c0.911,0.016,1.774,0.081,2.589,0.194l3.83,0.533l-0.465,3.341L3.489,216.224z"/>
	<path fill="#E5E5E5" d="M45.266,117.82c-0.938-0.621-1.671-1.319-2.2-2.098c-0.529-0.778-0.876-1.583-1.041-2.415
		c-0.165-0.832-0.161-1.664,0.011-2.496c0.172-0.832,0.497-1.607,0.974-2.328c0.469-0.709,1.041-1.255,1.714-1.64
		c0.673-0.384,1.343-0.644,2.008-0.78l0.751,2.815c-0.421,0.116-0.785,0.261-1.091,0.437c-0.305,0.176-0.58,0.447-0.821,0.813
		c-0.22,0.332-0.355,0.698-0.407,1.1c-0.052,0.401-0.014,0.804,0.112,1.208c0.127,0.405,0.347,0.806,0.66,1.202
		c0.313,0.396,0.721,0.761,1.225,1.094c1.052,0.696,2.003,1.01,2.855,0.94s1.516-0.464,1.993-1.185
		c0.288-0.435,0.452-0.864,0.495-1.288c0.042-0.424,0.012-0.843-0.093-1.257l2.851-0.432c0.231,0.843,0.279,1.665,0.145,2.463
		c-0.134,0.799-0.428,1.542-0.882,2.228c-0.484,0.732-1.06,1.346-1.725,1.843s-1.398,0.834-2.199,1.011
		c-0.799,0.178-1.651,0.173-2.555-0.014C47.141,118.856,46.215,118.448,45.266,117.82z"/>
	<path fill="#E5E5E5" d="M46.898,103.179l2.112-2.837l3.992,2.972l2.383-3.2l-3.993-2.972l2.112-2.837l10.724,7.982l-2.112,2.837
		l-4.256-3.168l-2.382,3.201l4.256,3.168l-2.112,2.837L46.898,103.179z"/>
	<path fill="#E5E5E5" d="M67.984,93.28l-2.4,2.872l1.755,2.325l-2.321,2.777l-7.646-11.698l2.743-3.282l12.869,5.449l-2.401,2.872
		L67.984,93.28z M65.477,92.015l-0.855-0.42c-0.6-0.287-1.242-0.609-1.926-0.967s-1.336-0.688-1.958-0.993l-0.053,0.063
		c0.429,0.556,0.88,1.134,1.352,1.733c0.472,0.601,0.903,1.17,1.292,1.71l0.565,0.767L65.477,92.015z"/>
	<path fill="#E5E5E5" d="M64.098,81.634l2.473-2.643l6.379,1.912l3.064,1.121l0.056-0.061c-0.289-0.213-0.607-0.445-0.955-0.695
		s-0.698-0.513-1.052-0.787c-0.353-0.274-0.705-0.551-1.053-0.831c-0.349-0.279-0.673-0.56-0.974-0.84l-2.823-2.642l2.304-2.463
		l9.762,9.133l-2.473,2.643l-6.394-1.926l-3.049-1.106l-0.056,0.061c0.617,0.464,1.293,0.966,2.029,1.503
		c0.736,0.539,1.404,1.088,2.005,1.65l2.824,2.642l-2.304,2.463L64.098,81.634z"/>
	<path fill="#E5E5E5" d="M78.23,76.554c-0.775-0.813-1.334-1.659-1.677-2.535c-0.342-0.876-0.496-1.743-0.461-2.601
		c0.036-0.857,0.24-1.682,0.613-2.473s0.892-1.503,1.557-2.137c0.685-0.653,1.406-1.098,2.164-1.337s1.475-0.35,2.154-0.333
		l0.104,2.912c-0.437,0.019-0.831,0.086-1.183,0.204s-0.722,0.361-1.109,0.729c-0.328,0.312-0.569,0.666-0.724,1.059
		c-0.155,0.394-0.223,0.809-0.205,1.246s0.136,0.884,0.353,1.339c0.217,0.457,0.534,0.903,0.95,1.34
		c0.87,0.913,1.74,1.419,2.611,1.518c0.87,0.099,1.742-0.268,2.616-1.101c0.139-0.132,0.261-0.277,0.367-0.435
		c0.105-0.158,0.175-0.309,0.207-0.454l-1.277-1.34l-1.429,1.362l-1.986-2.084l3.693-3.519l4.398,4.616
		c-0.045,0.668-0.252,1.401-0.621,2.196c-0.369,0.796-0.895,1.521-1.58,2.173c-0.666,0.634-1.388,1.128-2.167,1.482
		c-0.78,0.355-1.584,0.534-2.414,0.538c-0.829,0.005-1.666-0.183-2.51-0.562C79.83,77.98,79.015,77.378,78.23,76.554z"/>
	<path fill="#E5E5E5" d="M84.069,61.778l6.56-5.62l1.927,2.249l-3.874,3.318l1.365,1.593l3.312-2.837l1.927,2.249l-3.312,2.837
		l1.552,1.812l4.03-3.452l1.927,2.25l-6.716,5.753L84.069,61.778z"/>
</g>
</svg>
